<mxfile host="app.diagrams.net" modified="2020-12-05T15:35:41.991Z" agent="5.0 (Windows)" etag="t_Sl6pfBFlMMQX1-vTTj" version="13.10.9" type="github">
  <diagram id="XhQwJ2qdskYso5jSBTM0" name="Page-1">
    <mxGraphModel dx="1038" dy="547" grid="1" gridSize="10" guides="1" tooltips="1" connect="1" arrows="1" fold="1" page="1" pageScale="1" pageWidth="1169" pageHeight="827" math="0" shadow="0">
      <root>
        <mxCell id="0" />
        <mxCell id="1" parent="0" />
        <mxCell id="C6VPRwYoLAlLiU8AVAww-1" value="&#xa;RECEIPTING OF CASH/ CHEQUE/ DIRECT BANK TRANSFERS&#xa;" style="swimlane;" vertex="1" parent="1">
          <mxGeometry x="10" y="10" width="1150" height="810" as="geometry" />
        </mxCell>
        <mxCell id="C6VPRwYoLAlLiU8AVAww-2" value="Start" style="rounded=1;whiteSpace=wrap;html=1;" vertex="1" parent="C6VPRwYoLAlLiU8AVAww-1">
          <mxGeometry x="300" y="40" width="100" height="60" as="geometry" />
        </mxCell>
        <mxCell id="C6VPRwYoLAlLiU8AVAww-5" value="Cash office Accountant receives monies and confirms the authenticity of the source and the purpose" style="rounded=0;whiteSpace=wrap;html=1;" vertex="1" parent="C6VPRwYoLAlLiU8AVAww-1">
          <mxGeometry x="280" y="170" width="140" height="80" as="geometry" />
        </mxCell>
        <mxCell id="C6VPRwYoLAlLiU8AVAww-4" value="" style="edgeStyle=orthogonalEdgeStyle;rounded=0;orthogonalLoop=1;jettySize=auto;html=1;entryX=0.5;entryY=0;entryDx=0;entryDy=0;" edge="1" parent="C6VPRwYoLAlLiU8AVAww-1" source="C6VPRwYoLAlLiU8AVAww-2" target="C6VPRwYoLAlLiU8AVAww-5">
          <mxGeometry relative="1" as="geometry">
            <mxPoint x="350" y="180" as="targetPoint" />
          </mxGeometry>
        </mxCell>
        <mxCell id="C6VPRwYoLAlLiU8AVAww-8" value="&lt;div&gt;Is Money &lt;br&gt;&lt;/div&gt;&lt;div&gt;KEFRI&#39;s?&lt;/div&gt;" style="rhombus;whiteSpace=wrap;html=1;" vertex="1" parent="C6VPRwYoLAlLiU8AVAww-1">
          <mxGeometry x="290" y="314" width="120" height="80" as="geometry" />
        </mxCell>
        <mxCell id="C6VPRwYoLAlLiU8AVAww-7" value="" style="edgeStyle=orthogonalEdgeStyle;rounded=0;orthogonalLoop=1;jettySize=auto;html=1;" edge="1" parent="C6VPRwYoLAlLiU8AVAww-1" source="C6VPRwYoLAlLiU8AVAww-5" target="C6VPRwYoLAlLiU8AVAww-8">
          <mxGeometry relative="1" as="geometry">
            <mxPoint x="350" y="330" as="targetPoint" />
          </mxGeometry>
        </mxCell>
        <mxCell id="C6VPRwYoLAlLiU8AVAww-12" value="Return to source" style="rounded=0;whiteSpace=wrap;html=1;" vertex="1" parent="C6VPRwYoLAlLiU8AVAww-1">
          <mxGeometry x="130" y="324" width="110" height="60" as="geometry" />
        </mxCell>
        <mxCell id="C6VPRwYoLAlLiU8AVAww-10" value="" style="edgeStyle=orthogonalEdgeStyle;rounded=0;orthogonalLoop=1;jettySize=auto;html=1;entryX=1;entryY=0.5;entryDx=0;entryDy=0;" edge="1" parent="C6VPRwYoLAlLiU8AVAww-1" source="C6VPRwYoLAlLiU8AVAww-8" target="C6VPRwYoLAlLiU8AVAww-12">
          <mxGeometry relative="1" as="geometry">
            <mxPoint x="210" y="354" as="targetPoint" />
          </mxGeometry>
        </mxCell>
        <mxCell id="C6VPRwYoLAlLiU8AVAww-13" value="no" style="text;html=1;strokeColor=none;fillColor=none;align=center;verticalAlign=middle;whiteSpace=wrap;rounded=0;" vertex="1" parent="C6VPRwYoLAlLiU8AVAww-1">
          <mxGeometry x="250" y="335" width="40" height="20" as="geometry" />
        </mxCell>
        <mxCell id="C6VPRwYoLAlLiU8AVAww-15" value="" style="edgeStyle=orthogonalEdgeStyle;rounded=0;orthogonalLoop=1;jettySize=auto;html=1;entryX=0;entryY=0.5;entryDx=0;entryDy=0;" edge="1" parent="C6VPRwYoLAlLiU8AVAww-1" source="C6VPRwYoLAlLiU8AVAww-12" target="C6VPRwYoLAlLiU8AVAww-5">
          <mxGeometry relative="1" as="geometry">
            <mxPoint x="185" y="254" as="targetPoint" />
            <Array as="points">
              <mxPoint x="185" y="210" />
            </Array>
          </mxGeometry>
        </mxCell>
        <mxCell id="C6VPRwYoLAlLiU8AVAww-16" value="&lt;div&gt;Is it a&lt;/div&gt;&lt;div&gt;cheque?&lt;/div&gt;" style="rhombus;whiteSpace=wrap;html=1;" vertex="1" parent="C6VPRwYoLAlLiU8AVAww-1">
          <mxGeometry x="300" y="460" width="100" height="80" as="geometry" />
        </mxCell>
        <mxCell id="C6VPRwYoLAlLiU8AVAww-17" value="" style="edgeStyle=orthogonalEdgeStyle;rounded=0;orthogonalLoop=1;jettySize=auto;html=1;" edge="1" parent="C6VPRwYoLAlLiU8AVAww-1" source="C6VPRwYoLAlLiU8AVAww-8" target="C6VPRwYoLAlLiU8AVAww-16">
          <mxGeometry relative="1" as="geometry" />
        </mxCell>
        <mxCell id="C6VPRwYoLAlLiU8AVAww-18" value="yes" style="text;html=1;strokeColor=none;fillColor=none;align=center;verticalAlign=middle;whiteSpace=wrap;rounded=0;" vertex="1" parent="C6VPRwYoLAlLiU8AVAww-1">
          <mxGeometry x="343" y="410" width="40" height="20" as="geometry" />
        </mxCell>
        <mxCell id="C6VPRwYoLAlLiU8AVAww-21" value="yes" style="text;html=1;strokeColor=none;fillColor=none;align=center;verticalAlign=middle;whiteSpace=wrap;rounded=0;" vertex="1" parent="C6VPRwYoLAlLiU8AVAww-1">
          <mxGeometry x="345" y="560" width="40" height="20" as="geometry" />
        </mxCell>
        <mxCell id="C6VPRwYoLAlLiU8AVAww-24" value="DDF directs on account to be credited" style="whiteSpace=wrap;html=1;" vertex="1" parent="C6VPRwYoLAlLiU8AVAww-1">
          <mxGeometry x="290" y="720" width="120" height="60" as="geometry" />
        </mxCell>
        <mxCell id="C6VPRwYoLAlLiU8AVAww-28" value="Cash office accountant analyzes received monies" style="whiteSpace=wrap;html=1;" vertex="1" parent="C6VPRwYoLAlLiU8AVAww-1">
          <mxGeometry x="640" y="590" width="140" height="80" as="geometry" />
        </mxCell>
        <mxCell id="C6VPRwYoLAlLiU8AVAww-23" value="" style="edgeStyle=orthogonalEdgeStyle;rounded=0;orthogonalLoop=1;jettySize=auto;html=1;entryX=0;entryY=0.5;entryDx=0;entryDy=0;" edge="1" parent="C6VPRwYoLAlLiU8AVAww-1" source="C6VPRwYoLAlLiU8AVAww-16" target="C6VPRwYoLAlLiU8AVAww-24">
          <mxGeometry relative="1" as="geometry">
            <mxPoint x="490" y="710" as="targetPoint" />
            <Array as="points">
              <mxPoint x="250" y="500" />
              <mxPoint x="250" y="750" />
            </Array>
          </mxGeometry>
        </mxCell>
        <mxCell id="C6VPRwYoLAlLiU8AVAww-32" value="no" style="text;html=1;strokeColor=none;fillColor=none;align=center;verticalAlign=middle;whiteSpace=wrap;rounded=0;" vertex="1" parent="C6VPRwYoLAlLiU8AVAww-1">
          <mxGeometry x="243" y="527" width="40" height="20" as="geometry" />
        </mxCell>
        <mxCell id="C6VPRwYoLAlLiU8AVAww-39" value="End" style="rounded=1;whiteSpace=wrap;html=1;" vertex="1" parent="C6VPRwYoLAlLiU8AVAww-1">
          <mxGeometry x="856" y="440" width="120" height="60" as="geometry" />
        </mxCell>
        <mxCell id="C6VPRwYoLAlLiU8AVAww-25" value="" style="edgeStyle=orthogonalEdgeStyle;rounded=0;orthogonalLoop=1;jettySize=auto;html=1;" edge="1" parent="1" source="C6VPRwYoLAlLiU8AVAww-19" target="C6VPRwYoLAlLiU8AVAww-24">
          <mxGeometry relative="1" as="geometry" />
        </mxCell>
        <mxCell id="C6VPRwYoLAlLiU8AVAww-19" value="Record in incoming register and forward to DDF" style="whiteSpace=wrap;html=1;" vertex="1" parent="1">
          <mxGeometry x="290" y="615" width="140" height="70" as="geometry" />
        </mxCell>
        <mxCell id="C6VPRwYoLAlLiU8AVAww-20" value="" style="edgeStyle=orthogonalEdgeStyle;rounded=0;orthogonalLoop=1;jettySize=auto;html=1;" edge="1" parent="1" source="C6VPRwYoLAlLiU8AVAww-16" target="C6VPRwYoLAlLiU8AVAww-19">
          <mxGeometry relative="1" as="geometry" />
        </mxCell>
        <mxCell id="C6VPRwYoLAlLiU8AVAww-29" value="" style="edgeStyle=orthogonalEdgeStyle;rounded=0;orthogonalLoop=1;jettySize=auto;html=1;" edge="1" parent="1" source="C6VPRwYoLAlLiU8AVAww-26" target="C6VPRwYoLAlLiU8AVAww-28">
          <mxGeometry relative="1" as="geometry" />
        </mxCell>
        <mxCell id="C6VPRwYoLAlLiU8AVAww-26" value="Cash office accountant generates Receipts and issues accordingly" style="whiteSpace=wrap;html=1;" vertex="1" parent="1">
          <mxGeometry x="500" y="720" width="140" height="80" as="geometry" />
        </mxCell>
        <mxCell id="C6VPRwYoLAlLiU8AVAww-27" value="" style="edgeStyle=orthogonalEdgeStyle;rounded=0;orthogonalLoop=1;jettySize=auto;html=1;" edge="1" parent="1" source="C6VPRwYoLAlLiU8AVAww-24" target="C6VPRwYoLAlLiU8AVAww-26">
          <mxGeometry relative="1" as="geometry" />
        </mxCell>
        <mxCell id="C6VPRwYoLAlLiU8AVAww-34" value="" style="edgeStyle=orthogonalEdgeStyle;rounded=0;orthogonalLoop=1;jettySize=auto;html=1;" edge="1" parent="1" source="C6VPRwYoLAlLiU8AVAww-30" target="C6VPRwYoLAlLiU8AVAww-33">
          <mxGeometry relative="1" as="geometry" />
        </mxCell>
        <mxCell id="C6VPRwYoLAlLiU8AVAww-30" value="Cash &amp;amp; cheques received are banked" style="whiteSpace=wrap;html=1;" vertex="1" parent="1">
          <mxGeometry x="660" y="450" width="120" height="60" as="geometry" />
        </mxCell>
        <mxCell id="C6VPRwYoLAlLiU8AVAww-31" value="" style="edgeStyle=orthogonalEdgeStyle;rounded=0;orthogonalLoop=1;jettySize=auto;html=1;" edge="1" parent="1" source="C6VPRwYoLAlLiU8AVAww-28" target="C6VPRwYoLAlLiU8AVAww-30">
          <mxGeometry relative="1" as="geometry" />
        </mxCell>
        <mxCell id="C6VPRwYoLAlLiU8AVAww-36" value="" style="edgeStyle=orthogonalEdgeStyle;rounded=0;orthogonalLoop=1;jettySize=auto;html=1;" edge="1" parent="1" source="C6VPRwYoLAlLiU8AVAww-33" target="C6VPRwYoLAlLiU8AVAww-35">
          <mxGeometry relative="1" as="geometry" />
        </mxCell>
        <mxCell id="C6VPRwYoLAlLiU8AVAww-33" value="Cash office receipt copy is filed" style="whiteSpace=wrap;html=1;" vertex="1" parent="1">
          <mxGeometry x="660" y="310" width="120" height="60" as="geometry" />
        </mxCell>
        <mxCell id="C6VPRwYoLAlLiU8AVAww-38" value="" style="edgeStyle=orthogonalEdgeStyle;rounded=0;orthogonalLoop=1;jettySize=auto;html=1;entryX=0.5;entryY=0;entryDx=0;entryDy=0;" edge="1" parent="1" source="C6VPRwYoLAlLiU8AVAww-35" target="C6VPRwYoLAlLiU8AVAww-39">
          <mxGeometry relative="1" as="geometry">
            <mxPoint x="926" y="450" as="targetPoint" />
          </mxGeometry>
        </mxCell>
        <mxCell id="C6VPRwYoLAlLiU8AVAww-35" value="Receipts are posted in the respective cash book" style="whiteSpace=wrap;html=1;" vertex="1" parent="1">
          <mxGeometry x="866" y="310" width="120" height="60" as="geometry" />
        </mxCell>
      </root>
    </mxGraphModel>
  </diagram>
</mxfile>
